<?xml version="1.0" encoding="UTF-8" standalone="no"?>
<svg
   t="1763441939016"
   class="icon"
   viewBox="0 0 122.88 122.88"
   version="1.1"
   p-id="48785"
   width="24"
   height="24"
   id="svg3"
   sodipodi:docname="icon.svg"
   inkscape:version="1.4 (86a8ad7, 2024-10-11)"
   inkscape:export-filename="icon.png"
   inkscape:export-xdpi="96"
   inkscape:export-ydpi="96"
   xmlns:inkscape="http://www.inkscape.org/namespaces/inkscape"
   xmlns:sodipodi="http://sodipodi.sourceforge.net/DTD/sodipodi-0.dtd"
   xmlns="http://www.w3.org/2000/svg"
   xmlns:svg="http://www.w3.org/2000/svg">
  <defs
     id="defs3" />
  <sodipodi:namedview
     id="namedview3"
     pagecolor="#ffffff"
     bordercolor="#999999"
     borderopacity="1"
     inkscape:showpageshadow="0"
     inkscape:pageopacity="0"
     inkscape:pagecheckerboard="0"
     inkscape:deskcolor="#d1d1d1"
     showgrid="false"
     inkscape:zoom="31.989511"
     inkscape:cx="11.45688"
     inkscape:cy="10.675374"
     inkscape:window-width="2560"
     inkscape:window-height="1351"
     inkscape:window-x="-9"
     inkscape:window-y="-9"
     inkscape:window-maximized="1"
     inkscape:current-layer="svg3"
     inkscape:export-bgcolor="#ffffff00" />
  <path
     d="m 110.60497,49.1279 c -1.12955,0 -2.04517,-0.915625 -2.04517,-2.045174 V 40.94721 c 0,-1.12955 0.91562,-2.045174 2.04517,-2.045174 1.12954,0 2.04516,0.915624 2.04516,2.045174 v 6.135516 c 0,1.12955 -0.91562,2.045174 -2.04516,2.045174 z m 0,-22.4969 c -1.12955,0 -2.04517,-0.915625 -2.04517,-2.045174 v -6.135518 c 0,-1.129549 0.91562,-2.045173 2.04517,-2.045173 1.12954,0 2.04516,0.915624 2.04516,2.045173 v 6.135518 c 0,1.129549 -0.91562,2.045174 -2.04516,2.045174 z M 99.347934,14.962573 h -6.13552 c -1.12955,0 -2.04517,-0.915624 -2.04517,-2.045173 0,-1.12955 0.91562,-2.045174 2.04517,-2.045174 h 6.13552 c 1.129546,0 2.045166,0.915624 2.045166,2.045174 0,1.129549 -0.91562,2.045173 -2.045166,2.045173 z m -22.496901,0 h -6.135517 c -1.129551,0 -2.045174,-0.915624 -2.045174,-2.045173 0,-1.12955 0.915623,-2.045174 2.045174,-2.045174 h 6.135517 c 1.129548,0 2.045172,0.915624 2.045172,2.045174 0,1.129549 -0.915624,2.045173 -2.045172,2.045173 z"
     fill="#dcdddd"
     p-id="48786"
     id="path1"
     style="stroke-width:0.102694"
     sodipodi:nodetypes="ssssssssssssssssssssssssssss" />
  <path
     id="path2"
     style="stroke-dasharray:none;stroke-width:0.001;fill-opacity:1;fill:#f39835;"
     sodipodi:type="inkscape:offset"
     inkscape:radius="1.4991565"
     inkscape:original="M 24.609375 9.7226562 C 16.466021 9.724131 9.0404071 9.7823222 8.4355469 9.7871094 C 7.3059979 9.7960057 6.3974221 10.71821 6.40625 11.847656 C 6.4151454 12.971684 7.3291907 13.876953 8.4511719 13.876953 L 8.4667969 13.876953 C 8.7615069 13.874601 38.025778 13.648944 44.828125 14.078125 C 79.86163 16.289775 104.03822 40.033978 106.41992 74.568359 C 107.0435 83.610273 106.72566 108.97142 106.72266 109.22656 C 106.70814 110.356 107.61089 111.28238 108.74023 111.29688 L 108.76758 111.29688 C 109.88464 111.29678 110.7981 110.39779 110.8125 109.27734 C 110.826 108.22889 111.13503 83.493547 110.5 74.285156 C 109.92438 65.938907 108.06974 57.972907 104.98828 50.607422 C 101.83872 43.078936 97.480315 36.359615 92.033203 30.634766 C 80.328575 18.333053 64.094386 11.195995 45.085938 9.9960938 C 41.612876 9.776902 32.752729 9.7211815 24.609375 9.7226562 z "
     d="M 24.609375,8.2226563 C 16.459044,8.2241323 9.0296453,8.2823146 8.4238281,8.2871094 6.4847094,8.3023818 4.8910887,9.9196335 4.90625,11.859375 c 0.015276,1.930312 1.6165458,3.517578 3.5449219,3.517578 h 0.015625 a 1.4993064,1.4993064 0 0 0 0.011719,0 c 0.2679449,-0.0021 29.7561374,-0.212822 36.2558594,0.197266 34.403441,2.171874 57.852415,25.210937 60.189455,59.097656 0.60793,8.815074 0.30273,34.205065 0.29883,34.537105 -0.0238,1.93774 1.56,3.56301 3.49804,3.5879 a 1.4993064,1.4993064 0 0 0 0.0195,0 h 0.0273 c 1.92131,-1.8e-4 3.52018,-1.57526 3.54492,-3.5 0.0136,-1.05748 0.3336,-25.689718 -0.31641,-35.115239 -0.58632,-8.50144 -2.47766,-16.629399 -5.625,-24.152344 C 103.15406,42.339534 98.694778,35.461491 93.119141,29.601562 81.136939,17.008116 64.507599,9.7200672 45.179687,8.5 41.562607,8.2717189 32.759765,8.2211803 24.609375,8.2226563 Z"
     transform="translate(2.5541241,0.96031478)" />
  <path
     d="m 111.42304,103.01541 c -1.12955,0 -2.04518,-0.91562 -2.04518,-2.04517 V 58.124772 c 0,-1.12955 0.91563,-2.045174 2.04518,-2.045174 1.12955,0 2.04517,0.915624 2.04517,2.045174 v 42.845578 c 0,1.12944 -0.91562,2.04506 -2.04517,2.04506 z M 66.344109,14.837919 H 21.24506 c -1.129549,0 -2.045174,-0.915623 -2.045174,-2.045173 0,-1.129549 0.915625,-2.045173 2.045174,-2.045173 h 45.099049 c 1.129548,0 2.045172,0.915624 2.045172,2.045173 0,1.12955 -0.915624,2.045173 -2.045172,2.045173 z"
     fill="#20a2dd"
     p-id="48788"
     id="path3"
     style="stroke-width:0.102694"
     sodipodi:nodetypes="ssssssssssssss" />
  <path
     d="m 84.320034,112.87927 c 1.98813,0 3.59982,-1.61169 3.59983,-3.59982 V 49.912049 c 0,-13.204155 -17.250364,-18.222311 -24.334815,-7.084454 L 31.784198,101.76392 c -3.225442,5.06855 -11.065861,2.78626 -11.065861,-3.218236 V 70.179063 l 1.058346,1.058344 c 3.392933,3.277251 8.367406,-1.697218 5.090157,-5.090153 l -7.199649,-7.19965 c -1.405729,-1.405311 -3.684429,-1.405311 -5.090159,0 l -7.1996399,7.19965 c -3.51296,3.39291 1.69724,8.603108 5.0901499,5.090153 l 1.05114,-1.051156 v 28.359423 c 0,13.204156 17.250365,18.229506 24.334817,7.084456 L 69.65435,46.693798 c 3.225442,-5.061355 11.065862,-2.779066 11.065862,3.218251 v 59.367401 c 2e-6,1.98813 1.611692,3.59982 3.599822,3.59982 z"
     fill="#4e5969"
     opacity="0.5"
     p-id="35585"
     id="path4"
     style="opacity:1;fill:#f39835;fill-opacity:1;fill-rule:nonzero;stroke:none;stroke-width:0.001;stroke-dasharray:none"
     sodipodi:nodetypes="scsccsccccccccsccscs"
     inkscape:highlight-color="#f39835" />
</svg>
